<?xml version="1.0" encoding="UTF-8" standalone="no"?>
<svg width="215.9mm" height="279.4mm" viewBox="0 0 10200 13200"
 xmlns="http://www.w3.org/2000/svg" xmlns:xlink="http://www.w3.org/1999/xlink" version="1.2" baseProfile="full">
<title>score.mscx</title>
<desc>Generated by MuseScore Studio 4.7.0</desc>
<path class="" fill="#ffffff" fill-rule="evenodd" d="M0,0 L10200,0 L10200,13200 L0,13200 L0,0 "/>
<polyline class="StaffLines" fill="none" stroke="#000000" stroke-width="9.09" stroke-linejoin="bevel" points="1122.05,2114.17 9491.34,2114.17" />
<polyline class="StaffLines" fill="none" stroke="#000000" stroke-width="9.09" stroke-linejoin="bevel" points="1122.05,2196.85 9491.34,2196.85" />
<polyline class="StaffLines" fill="none" stroke="#000000" stroke-width="9.09" stroke-linejoin="bevel" points="1122.05,2279.53 9491.34,2279.53" />
<polyline class="StaffLines" fill="none" stroke="#000000" stroke-width="9.09" stroke-linejoin="bevel" points="1122.05,2362.2 9491.34,2362.2" />
<polyline class="StaffLines" fill="none" stroke="#000000" stroke-width="9.09" stroke-linejoin="bevel" points="1122.05,2444.88 9491.34,2444.88" />
<path class="Text" d="M8141.05,1379.68 L8134.71,1379.68 L8128.02,1389.54 C8115.83,1380.68 8109.66,1378.35 8098.13,1378.35 C8082.27,1378.35 8068.74,1385.03 8057.55,1398.39 C8046.86,1411.09 8041.85,1425.1 8041.85,1442.31 C8041.85,1478.39 8065.4,1503.93 8098.3,1503.93 C8125.02,1503.93 8142.05,1488.25 8145.9,1460.18 L8138.05,1458.84 C8133.54,1483.73 8120.85,1496.09 8100.3,1496.09 C8075.58,1496.09 8063.9,1479.06 8063.9,1442.98 C8063.9,1423.95 8066.4,1411.42 8072.08,1401.4 C8077.25,1392.04 8087.44,1386.2 8098.3,1386.2 C8109.99,1386.2 8120.35,1392.37 8126.69,1403.06 C8129.86,1408.57 8132.19,1414.76 8136.21,1427.95 L8143.55,1427.95 L8141.05,1379.68 M8188.3,1378.35 L8157.4,1380.18 L8157.4,1387.37 L8165.41,1387.37 C8171.77,1387.53 8172.6,1388.54 8172.6,1395.71 L8172.6,1488.9 C8172.43,1491.25 8172.27,1492.25 8171.6,1493.09 C8170.43,1494.59 8167.25,1495.26 8160.07,1495.42 L8159.41,1495.42 L8159.41,1501.43 L8201.66,1501.43 L8201.66,1495.42 L8200.99,1495.42 C8189.8,1495.09 8188.3,1494.25 8188.3,1488.25 L8188.3,1463.53 C8188.3,1455.34 8189.47,1447.82 8191.3,1443.98 C8194.97,1436.46 8202.33,1431.29 8209.5,1431.29 C8213.85,1431.29 8218.86,1433.79 8221.19,1437.14 C8223.86,1440.81 8225.04,1445.82 8225.04,1454 L8225.04,1488.9 C8224.86,1491.25 8224.71,1492.25 8224.04,1493.09 C8222.86,1494.59 8219.52,1495.26 8212.35,1495.42 L8211.68,1495.42 L8211.68,1501.43 L8253.93,1501.43 L8253.93,1495.42 L8253.27,1495.42 C8242.24,1495.09 8240.74,1494.25 8240.74,1488.25 L8240.74,1454.67 C8240.74,1442.65 8240.24,1439.64 8237.22,1433.96 C8233.05,1425.78 8224.71,1421.1 8214.68,1421.1 C8203.83,1421.1 8195.82,1425.95 8188.3,1437.14 L8188.3,1378.35 M8332.41,1447.65 C8332.41,1437.14 8330.58,1431.79 8325.74,1427.78 C8320.22,1423.28 8312.04,1421.1 8301.35,1421.1 C8282.47,1421.1 8268.79,1429.95 8268.79,1442.15 C8268.79,1448.32 8272.63,1452.34 8278.47,1452.34 C8283.82,1452.34 8287.49,1448.82 8287.49,1443.81 C8287.49,1441.65 8286.66,1439.31 8284.99,1436.96 C8283.99,1435.79 8283.82,1435.46 8283.82,1434.64 C8283.82,1431.29 8290.49,1428.28 8298.5,1428.28 C8303.85,1428.28 8309.71,1429.95 8312.38,1432.46 C8315.55,1435.14 8316.71,1439.14 8316.71,1446.65 L8316.71,1453.17 C8299.35,1456.17 8293.83,1457.51 8285.65,1460.68 C8271.13,1466.03 8264.27,1473.71 8264.27,1484.4 C8264.27,1496.42 8273.63,1503.93 8288.49,1503.93 C8300.02,1503.93 8310.36,1499.26 8317.55,1490.75 C8320.22,1499.26 8324.4,1502.6 8332.25,1502.6 C8339.75,1502.6 8347.61,1497.76 8347.61,1492.92 C8347.61,1491.75 8346.94,1490.92 8345.94,1490.92 C8345.27,1490.92 8344.6,1491.07 8343.44,1491.57 C8341.1,1492.59 8340.1,1492.75 8338.75,1492.75 C8334.08,1492.75 8332.41,1489.75 8332.41,1481.23 L8332.41,1447.65 M8316.71,1468.03 C8316.71,1478.06 8316.21,1480.39 8313.38,1484.73 C8309.19,1490.92 8301.69,1495.09 8294.33,1495.09 C8286.66,1495.09 8281.15,1489.57 8281.15,1482.06 C8281.15,1475.04 8284.65,1470.04 8292,1466.53 C8297.18,1464.18 8303.69,1462.53 8316.71,1460.35 L8316.71,1468.03 M8382.83,1423.6 L8353.27,1425.45 L8353.27,1432.62 L8360.13,1432.62 C8366.47,1432.79 8367.3,1433.79 8367.3,1440.98 L8367.3,1488.75 C8367.15,1491.25 8366.97,1492.25 8366.3,1493.09 C8365.13,1494.59 8361.8,1495.26 8354.61,1495.42 L8353.94,1495.42 L8353.94,1501.43 L8398.54,1501.43 L8398.54,1495.42 L8395.54,1495.42 C8384.35,1495.09 8382.83,1494.25 8382.83,1488.25 L8382.83,1479.21 C8383,1451.17 8393.02,1429.79 8406.05,1429.12 C8403.71,1431.79 8403.05,1433.46 8403.05,1436.64 C8403.05,1441.98 8406.88,1445.82 8412.22,1445.82 C8418.41,1445.82 8422.41,1441.31 8422.41,1434.64 C8422.41,1426.45 8416.74,1421.1 8407.9,1421.1 C8397.36,1421.1 8388.35,1429.45 8382.83,1444.32 L8382.83,1423.6 M8453.63,1378.35 L8422.74,1380.18 L8422.74,1387.37 L8430.93,1387.37 C8437.1,1387.53 8437.94,1388.54 8437.94,1395.71 L8437.94,1488.75 C8437.77,1491.25 8437.6,1492.25 8436.94,1493.09 C8435.77,1494.59 8432.6,1495.26 8425.41,1495.42 L8424.24,1495.42 L8424.24,1501.43 L8467.5,1501.43 L8467.5,1495.42 L8466.33,1495.42 C8455.15,1495.09 8453.63,1494.25 8453.63,1488.25 L8453.63,1378.35 M8549.82,1463.85 C8549.99,1438.81 8535.79,1421.1 8515.41,1421.1 C8494.04,1421.1 8478,1439.64 8478,1464.7 C8478,1488.25 8493.21,1503.93 8515.75,1503.93 C8531.79,1503.93 8542.97,1496.09 8549.82,1480.23 L8543.97,1477.04 C8537.13,1489.9 8530.11,1494.92 8518.93,1494.92 C8510.41,1494.92 8504.22,1491.42 8499.88,1483.9 C8496.88,1478.89 8495.54,1473.04 8495.71,1463.85 L8549.82,1463.85 M8495.88,1456.67 C8495.88,1444.98 8501.22,1428.28 8515.25,1428.28 C8525.27,1428.28 8531.94,1437.14 8531.94,1450.67 C8531.94,1455.34 8530.44,1456.67 8525.1,1456.67 L8495.88,1456.67 M8620.13,1421.78 L8614.27,1421.78 L8609.43,1427.78 C8603.43,1423.1 8597.41,1421.1 8589.05,1421.1 C8574.36,1421.1 8564.68,1430.62 8564.68,1445.32 C8564.68,1461.01 8574.86,1465.03 8588.22,1468.2 L8597.07,1470.2 C8610.27,1473.37 8614.94,1476.71 8614.94,1483.4 C8614.94,1491.25 8608.1,1496.76 8598.41,1496.76 C8584.21,1496.76 8574.19,1487.75 8570.19,1471.04 L8563.5,1471.04 L8563.5,1502.6 L8569.35,1502.6 L8575.19,1495.76 C8582.05,1501.26 8589.57,1503.93 8598.08,1503.93 C8614.44,1503.93 8625.3,1493.75 8625.3,1478.21 C8625.3,1470.87 8622.96,1465.2 8618.29,1461.35 C8614.27,1457.84 8610.94,1456.51 8600.75,1454.34 L8592.4,1452.5 C8583.21,1450.5 8583.21,1450.5 8580.21,1448.82 C8576.54,1447.15 8574.36,1443.65 8574.36,1439.98 C8574.36,1433.12 8580.71,1428.45 8589.9,1428.45 C8603.58,1428.45 8610.27,1438.14 8614.27,1449.82 L8620.13,1449.82 L8620.13,1421.78 M8720.47,1446.82 L8720.47,1401.4 C8720.47,1392.87 8720.47,1392.54 8721.65,1391.04 C8722.82,1389.37 8725.99,1388.87 8735.5,1388.7 L8738.68,1388.7 L8738.68,1380.85 L8683.74,1380.85 L8683.74,1388.7 L8686.74,1388.7 C8696.25,1388.87 8699.43,1389.37 8700.77,1391.04 C8701.77,1392.54 8701.77,1393.04 8701.77,1401.4 L8701.77,1480.89 C8701.77,1489.25 8701.77,1489.75 8700.77,1491.25 C8699.43,1492.92 8696.25,1493.59 8686.74,1493.59 L8683.74,1493.59 L8683.74,1501.43 L8738.68,1501.43 L8738.68,1493.59 L8735.5,1493.59 C8725.99,1493.42 8722.97,1492.92 8721.65,1491.25 C8720.47,1489.75 8720.47,1489.4 8720.47,1480.89 L8720.47,1459.68 L8739.85,1440.14 L8768.91,1482.73 C8771.58,1486.73 8772.25,1488.07 8772.25,1489.75 C8772.25,1492.59 8769.07,1493.59 8760.9,1493.59 L8755.71,1493.59 L8755.71,1501.43 L8812.83,1501.43 L8812.83,1493.59 L8809.66,1493.59 C8800.15,1493.42 8798.3,1492.59 8793.29,1485.23 L8752.88,1426.95 L8777.75,1402.06 C8785.77,1393.54 8795.96,1388.7 8805.99,1388.7 L8805.99,1380.85 L8754.55,1380.85 L8754.55,1388.7 L8758.72,1388.7 C8766.4,1388.7 8769.58,1390.2 8769.58,1393.71 C8769.58,1396.06 8766.24,1400.73 8761.4,1405.75 L8720.47,1446.82 M8831.52,1482.9 C8825.68,1482.9 8821,1487.57 8821,1493.25 C8821,1499.09 8825.68,1503.78 8831.36,1503.78 C8837.21,1503.78 8841.88,1499.09 8841.88,1493.25 C8841.88,1487.57 8837.21,1482.9 8831.52,1482.9 M8939.07,1380.85 L8904.66,1380.85 L8904.66,1388.7 L8908.83,1388.7 C8918.36,1389.04 8921.54,1390.2 8924.21,1394.21 L8924.21,1465.2 C8924.21,1487.9 8921.04,1492.75 8904.83,1493.59 L8904.83,1501.43 L8952.43,1501.43 L8952.43,1493.59 C8936.4,1492.75 8933.22,1487.9 8933.22,1465.2 L8933.22,1403.23 L9007.71,1503.78 L9014.72,1503.78 L9014.72,1417.09 C9014.72,1394.39 9017.9,1389.54 9034.1,1388.7 L9034.1,1380.85 L8986.49,1380.85 L8986.49,1388.7 C9002.54,1389.54 9005.71,1394.21 9005.71,1417.09 L9005.71,1469.54 L8939.07,1380.85 M9110.9,1463.85 C9111.07,1438.81 9096.86,1421.1 9076.49,1421.1 C9055.11,1421.1 9039.08,1439.64 9039.08,1464.7 C9039.08,1488.25 9054.29,1503.93 9076.83,1503.93 C9092.86,1503.93 9104.05,1496.09 9110.9,1480.23 L9105.05,1477.04 C9098.21,1489.9 9091.19,1494.92 9080,1494.92 C9071.49,1494.92 9065.3,1491.42 9060.96,1483.9 C9057.96,1478.89 9056.61,1473.04 9056.79,1463.85 L9110.9,1463.85 M9056.96,1456.67 C9056.96,1444.98 9062.3,1428.28 9076.33,1428.28 C9086.35,1428.28 9093.02,1437.14 9093.02,1450.67 C9093.02,1455.34 9091.52,1456.67 9086.18,1456.67 L9056.96,1456.67 M9143.29,1382.03 C9137.94,1382.03 9133.61,1386.37 9133.61,1391.71 C9133.61,1397.06 9137.94,1401.4 9143.13,1401.4 C9148.63,1401.4 9152.97,1397.06 9152.97,1391.71 C9152.97,1386.37 9148.63,1382.03 9143.29,1382.03 M9151.15,1423.6 L9119.74,1425.45 L9119.74,1432.62 L9128.27,1432.62 C9134.61,1432.79 9135.44,1433.79 9135.44,1440.98 L9135.44,1488.75 C9135.27,1491.25 9135.11,1492.25 9134.44,1493.09 C9133.27,1494.59 9130.1,1495.26 9122.91,1495.42 L9121.75,1495.42 L9121.75,1501.43 L9165,1501.43 L9165,1495.42 L9163.83,1495.42 C9152.65,1495.09 9151.15,1494.25 9151.15,1488.25 L9151.15,1423.6 M9202.9,1423.6 L9173.18,1425.45 L9173.18,1432.62 L9180.02,1432.62 C9186.36,1432.79 9187.21,1433.79 9187.21,1440.98 L9187.21,1488.75 C9187.04,1491.25 9186.86,1492.25 9186.21,1493.09 C9185.04,1494.59 9181.86,1495.26 9174.68,1495.42 L9174,1495.42 L9174,1501.43 L9216.1,1501.43 L9216.1,1495.42 L9215.43,1495.42 C9204.41,1495.09 9202.9,1494.25 9202.9,1488.07 L9202.9,1457.18 C9202.9,1442.31 9211.08,1431.29 9221.94,1431.29 C9231.46,1431.29 9236.3,1438.14 9236.3,1451.67 L9236.3,1488.9 C9236.13,1491.07 9235.97,1492.25 9235.13,1493.09 C9234.13,1494.59 9230.79,1495.26 9223.61,1495.42 L9222.94,1495.42 L9222.94,1501.43 L9265.19,1501.43 L9265.19,1495.42 L9264.52,1495.42 C9253.5,1495.09 9252,1494.25 9252,1488.25 L9252,1458.68 C9252,1441.98 9259.52,1431.29 9271.21,1431.29 C9280.72,1431.29 9285.4,1438.46 9285.4,1453.5 L9285.4,1488.75 C9285.24,1491.07 9285.07,1492.25 9284.24,1493.09 C9283.24,1494.59 9279.9,1495.26 9272.71,1495.42 L9272.04,1495.42 L9272.04,1501.43 L9314.3,1501.43 L9314.3,1495.42 L9313.63,1495.42 C9302.6,1495.09 9301.1,1494.25 9301.1,1488.07 L9301.1,1450.17 C9301.1,1439.81 9300.1,1436.29 9295.75,1430.62 C9290.91,1424.45 9284.07,1421.1 9276.05,1421.1 C9265.19,1421.1 9257.18,1426.28 9250,1437.81 C9247.16,1427.78 9238.15,1421.1 9226.96,1421.1 C9216.77,1421.1 9209.41,1425.95 9202.9,1436.46 L9202.9,1423.6 M9359.86,1421.1 C9339.33,1421.1 9323.46,1439.31 9323.46,1462.68 C9323.46,1485.57 9339.5,1503.93 9359.54,1503.93 C9379.58,1503.93 9395.61,1485.57 9395.61,1462.53 C9395.61,1439.64 9379.58,1421.1 9359.86,1421.1 M9359.86,1428.28 C9371.57,1428.28 9378.08,1440.48 9378.08,1462.53 C9378.08,1484.73 9371.57,1496.76 9359.54,1496.76 C9347.52,1496.76 9341,1484.73 9341,1462.68 C9341,1439.98 9347.35,1428.28 9359.86,1428.28 M9432.85,1489.07 C9423.66,1488.9 9423.16,1488.75 9421.16,1487.57 C9419.99,1486.9 9419.15,1485.07 9419.15,1483.23 C9419.15,1478.21 9423.66,1476.04 9434.85,1475.71 C9450.55,1475.39 9453.05,1475.04 9458.74,1472.54 C9468.75,1468.03 9474.27,1459.35 9474.27,1448.32 C9474.27,1441.65 9472.75,1437.46 9468.25,1431.96 C9471.1,1428.95 9472.6,1427.95 9473.93,1427.95 C9474.77,1427.95 9475.27,1428.45 9475.6,1430.29 C9476.27,1434.29 9478.94,1436.46 9483.11,1436.46 C9487.46,1436.46 9490.63,1432.96 9490.63,1428.45 C9490.63,1422.78 9486.13,1418.76 9479.61,1418.76 C9474.27,1418.76 9471.25,1420.43 9463.58,1427.45 C9456.57,1422.78 9451.22,1421.1 9442.86,1421.1 C9422.99,1421.1 9409.97,1432.12 9409.97,1448.82 C9409.97,1458.68 9415.32,1467.03 9423.99,1471.2 C9412.8,1473.71 9408.13,1478.71 9408.13,1487.9 C9408.13,1495.26 9411.47,1499.59 9419.32,1502.26 C9408.96,1506.1 9403.96,1511.29 9403.96,1518.14 C9403.96,1523.15 9407.3,1527.82 9412.65,1530.65 C9419.15,1534 9427.18,1535.34 9439.19,1535.34 C9467.08,1535.34 9480.94,1526.48 9480.94,1508.95 C9480.94,1500.6 9477.1,1493.92 9471.1,1491.42 C9466.58,1489.75 9461.24,1489.07 9449.88,1489.07 L9432.85,1489.07 M9442.71,1428.28 C9453.05,1428.28 9458.9,1435.46 9458.9,1448.5 C9458.9,1461.51 9452.55,1469.37 9442.04,1469.37 C9431.68,1469.37 9425.16,1461.51 9425.16,1449 C9425.16,1435.79 9431.5,1428.28 9442.71,1428.28 M9441.19,1503.43 C9455.07,1503.43 9456.07,1503.43 9458.4,1503.78 C9465.25,1504.43 9469.25,1508.12 9469.25,1513.46 C9469.25,1522.98 9458.4,1528.5 9439.86,1528.5 C9425.66,1528.5 9417.82,1524.31 9417.82,1516.79 C9417.82,1511.29 9420.82,1507.6 9428.83,1503.43 L9441.19,1503.43 "/>
<path class="Text" d="M4894.57,708.677 L4818.96,708.677 L4818.96,725.927 L4828.13,725.927 C4849.05,726.661 4856.04,729.239 4861.9,738.052 L4861.9,894.021 C4861.9,943.927 4854.93,954.583 4819.33,956.411 L4819.33,973.661 L4923.93,973.661 L4923.93,956.411 C4888.69,954.583 4881.72,943.927 4881.72,894.021 L4881.72,757.864 L5045.41,978.802 L5060.82,978.802 L5060.82,788.317 C5060.82,738.411 5067.79,727.771 5103.4,725.927 L5103.4,708.677 L4998.8,708.677 L4998.8,725.927 C5034.02,727.771 5041,738.052 5041,788.317 L5041,903.567 L4894.57,708.677 M5169.44,711.255 C5157.69,711.255 5148.15,720.802 5148.15,732.536 C5148.15,744.286 5157.69,753.833 5169.07,753.833 C5181.18,753.833 5190.72,744.286 5190.72,732.536 C5190.72,720.802 5181.18,711.255 5169.44,711.255 M5186.69,802.63 L5117.69,806.677 L5117.69,822.458 L5136.41,822.458 C5150.35,822.817 5152.19,825.021 5152.19,840.802 L5152.19,945.771 C5151.82,951.271 5151.46,953.474 5149.99,955.317 C5147.41,958.614 5140.44,960.083 5124.66,960.442 L5122.1,960.442 L5122.1,973.661 L5217.15,973.661 L5217.15,960.442 L5214.58,960.442 C5189.99,959.708 5186.69,957.88 5186.69,944.661 L5186.69,802.63 M5369.8,798.599 L5356.96,798.599 L5346.32,811.817 C5333.11,801.536 5319.9,797.13 5301.55,797.13 C5269.25,797.13 5247.96,818.052 5247.96,850.349 C5247.96,884.849 5270.35,893.661 5299.71,900.63 L5319.16,905.036 C5348.16,912.005 5358.43,919.349 5358.43,934.021 C5358.43,951.271 5343.38,963.38 5322.1,963.38 C5290.9,963.38 5268.88,943.567 5260.07,906.864 L5245.4,906.864 L5245.4,976.224 L5258.24,976.224 L5271.08,961.177 C5286.13,973.302 5302.65,979.161 5321.36,979.161 C5357.33,979.161 5381.19,956.786 5381.19,922.646 C5381.19,906.505 5376.05,894.021 5365.77,885.583 C5356.96,877.88 5349.63,874.942 5327.24,870.161 L5308.88,866.13 C5288.71,861.724 5288.71,861.724 5282.1,858.052 C5274.02,854.38 5269.25,846.677 5269.25,838.599 C5269.25,823.552 5283.19,813.286 5303.38,813.286 C5333.47,813.286 5348.16,834.567 5356.96,860.255 L5369.8,860.255 L5369.8,798.599 "/>
<polyline class="BarLine" fill="none" stroke="#000000" stroke-width="14.88" stroke-linejoin="bevel" points="5472.72,2109.63 5472.72,2449.43" />
<polyline class="BarLine" fill="none" stroke="#000000" stroke-width="14.88" stroke-linejoin="bevel" points="4023.98,2109.63 4023.98,2449.43" />
<polyline class="BarLine" fill="none" stroke="#000000" stroke-width="14.88" stroke-linejoin="bevel" points="8241.88,2109.63 8241.88,2449.43" />
<polyline class="BarLine" fill="none" stroke="#000000" stroke-width="14.88" stroke-linejoin="bevel" points="2787.74,2109.63 2787.74,2449.43" />
<polyline class="BarLine" fill="none" stroke="#000000" stroke-width="14.88" stroke-linejoin="bevel" points="6708.97,2109.63 6708.97,2449.43" />
<polyline class="BarLine" fill="none" stroke="#000000" stroke-width="14.88" stroke-linejoin="bevel" points="9407.84,2109.63 9407.84,2449.43" />
<polyline class="BarLine" fill="none" stroke="#000000" stroke-width="45.47" stroke-linejoin="bevel" points="9468.6,2109.63 9468.6,2449.43" />
<path class="Accidental" d="M6897.33,2048.33 L6926.8,2042.38 L6926.8,2096.99 L6897.33,2103.29 L6897.33,2048.33 M6948.64,2038.08 C6950.63,2037.76 6952.28,2035.43 6952.28,2033.44 L6952.28,2013.91 C6952.28,2011.27 6950.3,2009.29 6947.64,2009.29 L6946.99,2009.29 L6936.07,2011.6 L6936.07,1962.29 L6926.8,1962.29 L6926.8,2013.58 L6897.33,2019.54 L6897.33,1972.88 L6888.07,1972.88 L6888.07,2021.54 L6875.16,2024.18 C6873.17,2024.51 6871.52,2026.82 6871.52,2028.82 L6871.52,2048.01 C6871.52,2050.66 6873.5,2052.65 6876.16,2052.65 L6877.14,2052.65 L6888.07,2050.33 L6888.07,2104.94 L6875.16,2107.58 C6873.17,2107.91 6871.52,2110.24 6871.52,2112.23 L6871.52,2131.41 C6871.52,2134.07 6873.5,2136.05 6876.16,2136.05 L6877.14,2136.05 L6888.07,2133.74 L6888.07,2183.05 L6897.33,2183.05 L6897.33,2131.76 L6926.8,2125.79 L6926.8,2172.46 L6936.07,2172.46 L6936.07,2123.8 L6948.64,2121.49 C6950.63,2121.16 6952.28,2118.85 6952.28,2116.85 L6952.28,2097.33 C6952.28,2094.68 6950.3,2092.69 6947.64,2092.69 L6946.99,2092.69 L6936.07,2095.01 L6936.07,2040.4 L6948.64,2038.08 "/>
<path class="Accidental" d="M7040.87,2379.04 L7070.34,2373.09 L7070.34,2427.7 L7040.87,2434 L7040.87,2379.04 M7092.18,2368.79 C7094.17,2368.46 7095.82,2366.14 7095.82,2364.15 L7095.82,2344.62 C7095.82,2341.98 7093.84,2340 7091.18,2340 L7090.53,2340 L7079.6,2342.31 L7079.6,2293 L7070.34,2293 L7070.34,2344.29 L7040.87,2350.25 L7040.87,2303.59 L7031.6,2303.59 L7031.6,2352.25 L7018.7,2354.89 C7016.71,2355.21 7015.06,2357.53 7015.06,2359.53 L7015.06,2378.71 C7015.06,2381.37 7017.04,2383.36 7019.7,2383.36 L7020.68,2383.36 L7031.6,2381.04 L7031.6,2435.65 L7018.7,2438.29 C7016.71,2438.62 7015.06,2440.95 7015.06,2442.93 L7015.06,2462.12 C7015.06,2464.78 7017.04,2466.76 7019.7,2466.76 L7020.68,2466.76 L7031.6,2464.45 L7031.6,2513.76 L7040.87,2513.76 L7040.87,2462.46 L7070.34,2456.5 L7070.34,2503.17 L7079.6,2503.17 L7079.6,2454.51 L7092.18,2452.2 C7094.17,2451.87 7095.82,2449.56 7095.82,2447.56 L7095.82,2428.04 C7095.82,2425.39 7093.84,2423.4 7091.18,2423.4 L7090.53,2423.4 L7079.6,2425.71 L7079.6,2371.11 L7092.18,2368.79 "/>
<path class="Accidental" d="M4216.66,2266.29 C4216.66,2292.43 4203.1,2306.34 4183.89,2321.56 L4184.89,2257.03 C4185.55,2254.04 4190.52,2244.45 4203.75,2244.45 C4215.67,2244.45 4216.66,2255.7 4216.66,2262.65 L4216.66,2266.29 M4212.69,2228.23 C4196.14,2228.23 4186.55,2238.48 4184.89,2240.46 L4186.21,2134.21 C4186.21,2131.57 4184.22,2129.59 4181.58,2129.59 L4177.61,2129.59 C4174.96,2129.59 4172.97,2131.57 4172.97,2134.21 L4174.63,2333.15 C4174.63,2335.79 4176.61,2337.78 4179.25,2337.78 C4179.92,2337.78 4181.25,2337.45 4181.91,2337.12 C4210.38,2322.89 4240.16,2295.75 4240.16,2261.65 C4240.16,2244.45 4232.22,2228.23 4212.69,2228.23"/>
<path class="Accidental" d="M4128.85,2142.28 C4128.85,2168.42 4115.29,2182.32 4096.08,2197.54 L4097.08,2133.01 C4097.74,2130.03 4102.71,2120.43 4115.94,2120.43 C4127.86,2120.43 4128.85,2131.68 4128.85,2138.64 L4128.85,2142.28 M4124.88,2104.21 C4108.33,2104.21 4098.74,2114.46 4097.08,2116.45 L4098.4,2010.2 C4098.4,2007.56 4096.41,2005.57 4093.77,2005.57 L4089.8,2005.57 C4087.15,2005.57 4085.16,2007.56 4085.16,2010.2 L4086.82,2209.14 C4086.82,2211.78 4088.8,2213.76 4091.44,2213.76 C4092.11,2213.76 4093.44,2213.43 4094.1,2213.11 C4122.57,2198.87 4152.35,2171.73 4152.35,2137.64 C4152.35,2120.43 4144.41,2104.21 4124.88,2104.21"/>
<path class="Accidental" d="M6795.96,2089.67 L6825.43,2083.72 L6825.43,2138.33 L6795.96,2144.63 L6795.96,2089.67 M6847.27,2079.42 C6849.26,2079.09 6850.91,2076.77 6850.91,2074.78 L6850.91,2055.25 C6850.91,2052.61 6848.93,2050.63 6846.27,2050.63 L6845.62,2050.63 L6834.69,2052.94 L6834.69,2003.63 L6825.43,2003.63 L6825.43,2054.92 L6795.96,2060.88 L6795.96,2014.22 L6786.69,2014.22 L6786.69,2062.88 L6773.79,2065.52 C6771.8,2065.84 6770.15,2068.16 6770.15,2070.16 L6770.15,2089.34 C6770.15,2092 6772.13,2093.99 6774.79,2093.99 L6775.77,2093.99 L6786.69,2091.67 L6786.69,2146.28 L6773.79,2148.92 C6771.8,2149.25 6770.15,2151.58 6770.15,2153.56 L6770.15,2172.75 C6770.15,2175.41 6772.13,2177.39 6774.79,2177.39 L6775.77,2177.39 L6786.69,2175.08 L6786.69,2224.39 L6795.96,2224.39 L6795.96,2173.09 L6825.43,2167.13 L6825.43,2213.8 L6834.69,2213.8 L6834.69,2165.14 L6847.27,2162.83 C6849.26,2162.5 6850.91,2160.19 6850.91,2158.19 L6850.91,2138.67 C6850.91,2136.02 6848.93,2134.03 6846.27,2134.03 L6845.62,2134.03 L6834.69,2136.34 L6834.69,2081.74 L6847.27,2079.42 "/>
<path class="Accidental" d="M4271.71,2089.67 L4301.18,2083.72 L4301.18,2138.33 L4271.71,2144.63 L4271.71,2089.67 M4323.02,2079.42 C4325.01,2079.09 4326.66,2076.77 4326.66,2074.78 L4326.66,2055.25 C4326.66,2052.61 4324.68,2050.63 4322.02,2050.63 L4321.37,2050.63 L4310.45,2052.94 L4310.45,2003.63 L4301.18,2003.63 L4301.18,2054.92 L4271.71,2060.88 L4271.71,2014.22 L4262.45,2014.22 L4262.45,2062.88 L4249.54,2065.52 C4247.56,2065.84 4245.9,2068.16 4245.9,2070.16 L4245.9,2089.34 C4245.9,2092 4247.88,2093.99 4250.54,2093.99 L4251.52,2093.99 L4262.45,2091.67 L4262.45,2146.28 L4249.54,2148.92 C4247.56,2149.25 4245.9,2151.58 4245.9,2153.56 L4245.9,2172.75 C4245.9,2175.41 4247.88,2177.39 4250.54,2177.39 L4251.52,2177.39 L4262.45,2175.08 L4262.45,2224.39 L4271.71,2224.39 L4271.71,2173.09 L4301.18,2167.13 L4301.18,2213.8 L4310.45,2213.8 L4310.45,2165.14 L4323.02,2162.83 C4325.01,2162.5 4326.66,2160.19 4326.66,2158.19 L4326.66,2138.67 C4326.66,2136.02 4324.68,2134.03 4322.02,2134.03 L4321.37,2134.03 L4310.45,2136.34 L4310.45,2081.74 L4323.02,2079.42 "/>
<path class="Accidental" d="M7016.58,2142.28 C7016.58,2168.42 7003.02,2182.32 6983.81,2197.54 L6984.81,2133.01 C6985.47,2130.03 6990.44,2120.43 7003.67,2120.43 C7015.59,2120.43 7016.58,2131.68 7016.58,2138.64 L7016.58,2142.28 M7012.61,2104.21 C6996.06,2104.21 6986.47,2114.46 6984.81,2116.45 L6986.13,2010.2 C6986.13,2007.56 6984.14,2005.57 6981.5,2005.57 L6977.53,2005.57 C6974.88,2005.57 6972.89,2007.56 6972.89,2010.2 L6974.55,2209.14 C6974.55,2211.78 6976.53,2213.76 6979.17,2213.76 C6979.84,2213.76 6981.17,2213.43 6981.83,2213.11 C7010.3,2198.87 7040.08,2171.73 7040.08,2137.64 C7040.08,2120.43 7032.14,2104.21 7012.61,2104.21"/>
<path class="Accidental" d="M4365.32,1800.3 L4394.79,1794.35 L4394.79,1848.96 L4365.32,1855.26 L4365.32,1800.3 M4416.63,1790.05 C4418.62,1789.72 4420.27,1787.4 4420.27,1785.41 L4420.27,1765.88 C4420.27,1763.24 4418.29,1761.26 4415.63,1761.26 L4414.97,1761.26 L4404.05,1763.57 L4404.05,1714.26 L4394.79,1714.26 L4394.79,1765.55 L4365.32,1771.51 L4365.32,1724.85 L4356.05,1724.85 L4356.05,1773.51 L4343.15,1776.15 C4341.16,1776.47 4339.51,1778.79 4339.51,1780.79 L4339.51,1799.97 C4339.51,1802.63 4341.49,1804.62 4344.15,1804.62 L4345.13,1804.62 L4356.05,1802.3 L4356.05,1856.91 L4343.15,1859.55 C4341.16,1859.88 4339.51,1862.21 4339.51,1864.19 L4339.51,1883.38 C4339.51,1886.04 4341.49,1888.02 4344.15,1888.02 L4345.13,1888.02 L4356.05,1885.71 L4356.05,1935.02 L4365.32,1935.02 L4365.32,1883.72 L4394.79,1877.76 L4394.79,1924.43 L4404.05,1924.43 L4404.05,1875.77 L4416.63,1873.46 C4418.62,1873.13 4420.27,1870.82 4420.27,1868.82 L4420.27,1849.3 C4420.27,1846.65 4418.29,1844.66 4415.63,1844.66 L4414.97,1844.66 L4404.05,1846.97 L4404.05,1792.37 L4416.63,1790.05 "/>
<path class="Accidental" d="M7134.48,2503.06 L7163.95,2497.11 L7163.95,2551.72 L7134.48,2558.01 L7134.48,2503.06 M7185.79,2492.81 C7187.77,2492.48 7189.43,2490.15 7189.43,2488.17 L7189.43,2468.64 C7189.43,2466 7187.45,2464.01 7184.79,2464.01 L7184.13,2464.01 L7173.21,2466.32 L7173.21,2417.01 L7163.95,2417.01 L7163.95,2468.31 L7134.48,2474.26 L7134.48,2427.61 L7125.21,2427.61 L7125.21,2476.26 L7112.3,2478.9 C7110.32,2479.23 7108.66,2481.54 7108.66,2483.54 L7108.66,2502.73 C7108.66,2505.39 7110.65,2507.37 7113.3,2507.37 L7114.29,2507.37 L7125.21,2505.06 L7125.21,2559.67 L7112.3,2562.31 C7110.32,2562.64 7108.66,2564.97 7108.66,2566.95 L7108.66,2586.14 C7108.66,2588.79 7110.65,2590.78 7113.3,2590.78 L7114.29,2590.78 L7125.21,2588.47 L7125.21,2637.78 L7134.48,2637.78 L7134.48,2586.48 L7163.95,2580.51 L7163.95,2627.18 L7173.21,2627.18 L7173.21,2578.53 L7185.79,2576.22 C7187.77,2575.89 7189.43,2573.57 7189.43,2571.57 L7189.43,2552.06 C7189.43,2549.4 7187.45,2547.42 7184.79,2547.42 L7184.13,2547.42 L7173.21,2549.73 L7173.21,2495.12 L7185.79,2492.81 "/>
<path class="Accidental" d="M8346.75,2266.29 C8346.75,2292.43 8333.19,2306.34 8313.99,2321.56 L8314.99,2257.03 C8315.64,2254.04 8320.61,2244.45 8333.84,2244.45 C8345.77,2244.45 8346.75,2255.7 8346.75,2262.65 L8346.75,2266.29 M8342.78,2228.23 C8326.24,2228.23 8316.64,2238.48 8314.99,2240.46 L8316.3,2134.21 C8316.3,2131.57 8314.31,2129.59 8311.67,2129.59 L8307.7,2129.59 C8305.05,2129.59 8303.06,2131.57 8303.06,2134.21 L8304.72,2333.15 C8304.72,2335.79 8306.7,2337.78 8309.34,2337.78 C8310.02,2337.78 8311.34,2337.45 8312,2337.12 C8340.47,2322.89 8370.25,2295.75 8370.25,2261.65 C8370.25,2244.45 8362.31,2228.23 8342.78,2228.23"/>
<path class="Accidental" d="M8346.75,1976.92 C8346.75,2003.06 8333.19,2016.97 8313.99,2032.19 L8314.99,1967.66 C8315.64,1964.67 8320.61,1955.08 8333.84,1955.08 C8345.77,1955.08 8346.75,1966.33 8346.75,1973.28 L8346.75,1976.92 M8342.78,1938.86 C8326.24,1938.86 8316.64,1949.11 8314.99,1951.09 L8316.3,1844.84 C8316.3,1842.2 8314.31,1840.22 8311.67,1840.22 L8307.7,1840.22 C8305.05,1840.22 8303.06,1842.2 8303.06,1844.84 L8304.72,2043.78 C8304.72,2046.42 8306.7,2048.41 8309.34,2048.41 C8310.02,2048.41 8311.34,2048.08 8312,2047.75 C8340.47,2033.52 8370.25,2006.38 8370.25,1972.28 C8370.25,1955.08 8362.31,1938.86 8342.78,1938.86"/>
<path class="Accidental" d="M7019.37,1882.98 L7048.84,1877.03 L7048.84,1931.64 L7019.37,1937.93 L7019.37,1882.98 M7070.69,1872.73 C7072.67,1872.4 7074.33,1870.07 7074.33,1868.09 L7074.33,1848.56 C7074.33,1845.92 7072.34,1843.93 7069.69,1843.93 L7069.03,1843.93 L7058.11,1846.25 L7058.11,1796.93 L7048.84,1796.93 L7048.84,1848.23 L7019.37,1854.18 L7019.37,1807.53 L7010.11,1807.53 L7010.11,1856.18 L6997.2,1858.82 C6995.22,1859.15 6993.56,1861.46 6993.56,1863.46 L6993.56,1882.65 C6993.56,1885.31 6995.54,1887.29 6998.2,1887.29 L6999.19,1887.29 L7010.11,1884.98 L7010.11,1939.59 L6997.2,1942.23 C6995.22,1942.56 6993.56,1944.89 6993.56,1946.87 L6993.56,1966.06 C6993.56,1968.71 6995.54,1970.7 6998.2,1970.7 L6999.19,1970.7 L7010.11,1968.39 L7010.11,2017.7 L7019.37,2017.7 L7019.37,1966.4 L7048.84,1960.43 L7048.84,2007.11 L7058.11,2007.11 L7058.11,1958.45 L7070.69,1956.14 C7072.67,1955.81 7074.33,1953.5 7074.33,1951.5 L7074.33,1931.98 C7074.33,1929.32 7072.34,1927.34 7069.69,1927.34 L7069.03,1927.34 L7058.11,1929.65 L7058.11,1875.04 L7070.69,1872.73 "/>
<polyline class="LedgerLine" fill="none" stroke="#000000" stroke-width="13.23" stroke-linejoin="bevel" points="7204.25,2527.56 7382.19,2527.56" />
<polyline class="LedgerLine" fill="none" stroke="#000000" stroke-width="13.23" stroke-linejoin="bevel" points="5556.23,2031.5 5849.27,2031.5" />
<polyline class="LedgerLine" fill="none" stroke="#000000" stroke-width="13.23" stroke-linejoin="bevel" points="5556.23,1948.82 5849.27,1948.82" />
<polyline class="LedgerLine" fill="none" stroke="#000000" stroke-width="13.23" stroke-linejoin="bevel" points="5671.33,1866.14 5849.27,1866.14" />
<polyline class="LedgerLine" fill="none" stroke="#000000" stroke-width="13.23" stroke-linejoin="bevel" points="5671.33,1783.46 5849.27,1783.46" />
<polyline class="LedgerLine" fill="none" stroke="#000000" stroke-width="13.23" stroke-linejoin="bevel" points="2986.35,2031.5 3164.28,2031.5" />
<polyline class="LedgerLine" fill="none" stroke="#000000" stroke-width="13.23" stroke-linejoin="bevel" points="8370.2,2031.5 8548.14,2031.5" />
<polyline class="LedgerLine" fill="none" stroke="#000000" stroke-width="13.23" stroke-linejoin="bevel" points="7204.25,1866.14 7382.19,1866.14" />
<polyline class="LedgerLine" fill="none" stroke="#000000" stroke-width="13.23" stroke-linejoin="bevel" points="7089.15,1948.82 7382.19,1948.82" />
<polyline class="LedgerLine" fill="none" stroke="#000000" stroke-width="13.23" stroke-linejoin="bevel" points="4435.09,2527.56 4613.03,2527.56" />
<polyline class="LedgerLine" fill="none" stroke="#000000" stroke-width="13.23" stroke-linejoin="bevel" points="4435.09,1866.14 4613.03,1866.14" />
<polyline class="LedgerLine" fill="none" stroke="#000000" stroke-width="13.23" stroke-linejoin="bevel" points="4435.09,1948.82 4613.03,1948.82" />
<polyline class="LedgerLine" fill="none" stroke="#000000" stroke-width="13.23" stroke-linejoin="bevel" points="7089.15,2031.5 7382.19,2031.5" />
<polyline class="LedgerLine" fill="none" stroke="#000000" stroke-width="13.23" stroke-linejoin="bevel" points="4435.09,2031.5 4613.03,2031.5" />
<path class="Note" d="M5648.06,2147.94 C5638.79,2147.94 5632.5,2145.28 5628.2,2137.02 C5623.89,2128.74 5617.93,2107.55 5617.61,2098.61 C5616.95,2089.67 5620.25,2084.38 5628.2,2081.74 C5632.17,2080.41 5637.47,2079.75 5642.43,2079.75 C5651.7,2079.75 5657.65,2081.74 5662.29,2090.67 C5666.92,2099.61 5672.89,2120.8 5672.89,2129.06 C5672.89,2145.28 5661.62,2147.94 5648.06,2147.94 M5645.4,2069.16 C5599.73,2069.16 5583.51,2092.33 5583.51,2113.84 C5583.51,2135.36 5599.73,2158.53 5645.4,2158.53 C5691.09,2158.53 5706.97,2135.36 5706.97,2113.84 C5706.97,2092.33 5691.09,2069.16 5645.4,2069.16"/>
<path class="Note" d="M8462.03,2023.92 C8452.77,2023.92 8446.47,2021.27 8442.17,2013 C8437.86,2004.72 8431.91,1983.53 8431.58,1974.59 C8430.92,1965.66 8434.22,1960.36 8442.17,1957.72 C8446.14,1956.39 8451.44,1955.74 8456.41,1955.74 C8465.67,1955.74 8471.63,1957.72 8476.27,1966.66 C8480.89,1975.59 8486.86,1996.78 8486.86,2005.05 C8486.86,2021.27 8475.6,2023.92 8462.03,2023.92 M8459.38,1945.14 C8413.71,1945.14 8397.49,1968.31 8397.49,1989.83 C8397.49,2011.34 8413.71,2034.52 8459.38,2034.52 C8505.07,2034.52 8520.94,2011.34 8520.94,1989.83 C8520.94,1968.31 8505.07,1945.14 8459.38,1945.14"/>
<path class="Note" d="M7296.08,2437.31 C7286.81,2437.31 7280.52,2434.65 7276.22,2426.39 C7271.91,2418.11 7265.95,2396.92 7265.63,2387.98 C7264.97,2379.04 7268.27,2373.75 7276.22,2371.11 C7280.19,2369.78 7285.49,2369.12 7290.45,2369.12 C7299.72,2369.12 7305.67,2371.11 7310.31,2380.04 C7314.94,2388.98 7320.91,2410.17 7320.91,2418.43 C7320.91,2434.65 7309.64,2437.31 7296.08,2437.31 M7293.42,2358.53 C7247.75,2358.53 7231.53,2381.7 7231.53,2403.21 C7231.53,2424.73 7247.75,2447.9 7293.42,2447.9 C7339.11,2447.9 7354.99,2424.73 7354.99,2403.21 C7354.99,2381.7 7339.11,2358.53 7293.42,2358.53"/>
<path class="Note" d="M7296.08,2065.26 C7286.81,2065.26 7280.52,2062.61 7276.22,2054.34 C7271.91,2046.06 7265.95,2024.87 7265.63,2015.93 C7264.97,2007 7268.27,2001.7 7276.22,1999.06 C7280.19,1997.73 7285.49,1997.07 7290.45,1997.07 C7299.72,1997.07 7305.67,1999.06 7310.31,2008 C7314.94,2016.93 7320.91,2038.12 7320.91,2046.39 C7320.91,2062.61 7309.64,2065.26 7296.08,2065.26 M7293.42,1986.48 C7247.75,1986.48 7231.53,2009.65 7231.53,2031.17 C7231.53,2052.68 7247.75,2075.86 7293.42,2075.86 C7339.11,2075.86 7354.99,2052.68 7354.99,2031.17 C7354.99,2009.65 7339.11,1986.48 7293.42,1986.48"/>
<path class="Note" d="M7180.98,2354.63 C7171.71,2354.63 7165.41,2351.98 7161.12,2343.71 C7156.8,2335.43 7150.85,2314.24 7150.52,2305.3 C7149.87,2296.37 7153.16,2291.07 7161.12,2288.43 C7165.09,2287.1 7170.38,2286.44 7175.35,2286.44 C7184.62,2286.44 7190.57,2288.43 7195.21,2297.37 C7199.84,2306.3 7205.8,2327.49 7205.8,2335.76 C7205.8,2351.98 7194.54,2354.63 7180.98,2354.63 M7178.32,2275.85 C7132.65,2275.85 7116.43,2299.02 7116.43,2320.54 C7116.43,2342.05 7132.65,2365.23 7178.32,2365.23 C7224.01,2365.23 7239.88,2342.05 7239.88,2320.54 C7239.88,2299.02 7224.01,2275.85 7178.32,2275.85"/>
<path class="Note" d="M7296.08,2313.29 C7286.81,2313.29 7280.52,2310.64 7276.22,2302.37 C7271.91,2294.09 7265.95,2272.9 7265.63,2263.96 C7264.97,2255.03 7268.27,2249.73 7276.22,2247.09 C7280.19,2245.76 7285.49,2245.11 7290.45,2245.11 C7299.72,2245.11 7305.67,2247.09 7310.31,2256.03 C7314.94,2264.96 7320.91,2286.15 7320.91,2294.42 C7320.91,2310.64 7309.64,2313.29 7296.08,2313.29 M7293.42,2234.51 C7247.75,2234.51 7231.53,2257.68 7231.53,2279.2 C7231.53,2300.71 7247.75,2323.89 7293.42,2323.89 C7339.11,2323.89 7354.99,2300.71 7354.99,2279.2 C7354.99,2257.68 7339.11,2234.51 7293.42,2234.51"/>
<path class="Note" d="M7296.08,2230.62 C7286.81,2230.62 7280.52,2227.96 7276.22,2219.69 C7271.91,2211.41 7265.95,2190.23 7265.63,2181.29 C7264.97,2172.35 7268.27,2167.05 7276.22,2164.41 C7280.19,2163.08 7285.49,2162.43 7290.45,2162.43 C7299.72,2162.43 7305.67,2164.41 7310.31,2173.35 C7314.94,2182.29 7320.91,2203.48 7320.91,2211.74 C7320.91,2227.96 7309.64,2230.62 7296.08,2230.62 M7293.42,2151.83 C7247.75,2151.83 7231.53,2175.01 7231.53,2196.52 C7231.53,2218.04 7247.75,2241.21 7293.42,2241.21 C7339.11,2241.21 7354.99,2218.04 7354.99,2196.52 C7354.99,2175.01 7339.11,2151.83 7293.42,2151.83"/>
<path class="Note" d="M8462.03,2313.29 C8452.77,2313.29 8446.47,2310.64 8442.17,2302.37 C8437.86,2294.09 8431.91,2272.9 8431.58,2263.96 C8430.92,2255.03 8434.22,2249.73 8442.17,2247.09 C8446.14,2245.76 8451.44,2245.11 8456.41,2245.11 C8465.67,2245.11 8471.63,2247.09 8476.27,2256.03 C8480.89,2264.96 8486.86,2286.15 8486.86,2294.42 C8486.86,2310.64 8475.6,2313.29 8462.03,2313.29 M8459.38,2234.51 C8413.71,2234.51 8397.49,2257.68 8397.49,2279.2 C8397.49,2300.71 8413.71,2323.89 8459.38,2323.89 C8505.07,2323.89 8520.94,2300.71 8520.94,2279.2 C8520.94,2257.68 8505.07,2234.51 8459.38,2234.51"/>
<path class="Note" d="M7296.08,1899.91 C7286.81,1899.91 7280.52,1897.25 7276.22,1888.99 C7271.91,1880.7 7265.95,1859.52 7265.63,1850.58 C7264.97,1841.64 7268.27,1836.34 7276.22,1833.7 C7280.19,1832.38 7285.49,1831.72 7290.45,1831.72 C7299.72,1831.72 7305.67,1833.7 7310.31,1842.64 C7314.94,1851.58 7320.91,1872.77 7320.91,1881.03 C7320.91,1897.25 7309.64,1899.91 7296.08,1899.91 M7293.42,1821.13 C7247.75,1821.13 7231.53,1844.3 7231.53,1865.81 C7231.53,1887.33 7247.75,1910.5 7293.42,1910.5 C7339.11,1910.5 7354.99,1887.33 7354.99,1865.81 C7354.99,1844.3 7339.11,1821.13 7293.42,1821.13"/>
<path class="Note" d="M7180.98,2189.28 C7171.71,2189.28 7165.41,2186.62 7161.12,2178.36 C7156.8,2170.07 7150.85,2148.89 7150.52,2139.95 C7149.87,2131.01 7153.16,2125.71 7161.12,2123.07 C7165.09,2121.75 7170.38,2121.09 7175.35,2121.09 C7184.62,2121.09 7190.57,2123.07 7195.21,2132.01 C7199.84,2140.95 7205.8,2162.14 7205.8,2170.4 C7205.8,2186.62 7194.54,2189.28 7180.98,2189.28 M7178.32,2110.5 C7132.65,2110.5 7116.43,2133.67 7116.43,2155.18 C7116.43,2176.7 7132.65,2199.87 7178.32,2199.87 C7224.01,2199.87 7239.88,2176.7 7239.88,2155.18 C7239.88,2133.67 7224.01,2110.5 7178.32,2110.5"/>
<path class="Note" d="M7296.08,2147.94 C7286.81,2147.94 7280.52,2145.28 7276.22,2137.02 C7271.91,2128.74 7265.95,2107.55 7265.63,2098.61 C7264.97,2089.67 7268.27,2084.38 7276.22,2081.74 C7280.19,2080.41 7285.49,2079.75 7290.45,2079.75 C7299.72,2079.75 7305.67,2081.74 7310.31,2090.67 C7314.94,2099.61 7320.91,2120.8 7320.91,2129.06 C7320.91,2145.28 7309.64,2147.94 7296.08,2147.94 M7293.42,2069.16 C7247.75,2069.16 7231.53,2092.33 7231.53,2113.84 C7231.53,2135.36 7247.75,2158.53 7293.42,2158.53 C7339.11,2158.53 7354.99,2135.36 7354.99,2113.84 C7354.99,2092.33 7339.11,2069.16 7293.42,2069.16"/>
<path class="Note" d="M7180.98,2106.6 C7171.71,2106.6 7165.41,2103.94 7161.12,2095.68 C7156.8,2087.4 7150.85,2066.21 7150.52,2057.27 C7149.87,2048.33 7153.16,2043.04 7161.12,2040.4 C7165.09,2039.07 7170.38,2038.41 7175.35,2038.41 C7184.62,2038.41 7190.57,2040.4 7195.21,2049.33 C7199.84,2058.27 7205.8,2079.46 7205.8,2087.73 C7205.8,2103.94 7194.54,2106.6 7180.98,2106.6 M7178.32,2027.82 C7132.65,2027.82 7116.43,2050.99 7116.43,2072.51 C7116.43,2094.02 7132.65,2117.19 7178.32,2117.19 C7224.01,2117.19 7239.88,2094.02 7239.88,2072.51 C7239.88,2050.99 7224.01,2027.82 7178.32,2027.82"/>
<path class="Note" d="M7180.98,1941.25 C7171.71,1941.25 7165.41,1938.59 7161.12,1930.32 C7156.8,1922.04 7150.85,1900.86 7150.52,1891.92 C7149.87,1882.98 7153.16,1877.68 7161.12,1875.04 C7165.09,1873.71 7170.38,1873.06 7175.35,1873.06 C7184.62,1873.06 7190.57,1875.04 7195.21,1883.98 C7199.84,1892.92 7205.8,1914.11 7205.8,1922.37 C7205.8,1938.59 7194.54,1941.25 7180.98,1941.25 M7178.32,1862.46 C7132.65,1862.46 7116.43,1885.64 7116.43,1907.15 C7116.43,1928.67 7132.65,1951.84 7178.32,1951.84 C7224.01,1951.84 7239.88,1928.67 7239.88,1907.15 C7239.88,1885.64 7224.01,1862.46 7178.32,1862.46"/>
<path class="Note" d="M7296.08,2561.32 C7286.81,2561.32 7280.52,2558.67 7276.22,2550.4 C7271.91,2542.12 7265.95,2520.93 7265.63,2512 C7264.97,2503.06 7268.27,2497.76 7276.22,2495.12 C7280.19,2493.79 7285.49,2493.14 7290.45,2493.14 C7299.72,2493.14 7305.67,2495.12 7310.31,2504.06 C7314.94,2513 7320.91,2534.18 7320.91,2542.45 C7320.91,2558.67 7309.64,2561.32 7296.08,2561.32 M7293.42,2482.54 C7247.75,2482.54 7231.53,2505.72 7231.53,2527.23 C7231.53,2548.75 7247.75,2571.92 7293.42,2571.92 C7339.11,2571.92 7354.99,2548.75 7354.99,2527.23 C7354.99,2505.72 7339.11,2482.54 7293.42,2482.54"/>
<path class="Note" d="M1841.94,2519.99 C1832.67,2519.99 1826.37,2517.33 1822.08,2509.06 C1817.76,2500.78 1811.81,2479.6 1811.48,2470.66 C1810.83,2461.72 1814.12,2456.42 1822.08,2453.78 C1826.05,2452.45 1831.34,2451.8 1836.31,2451.8 C1845.58,2451.8 1851.53,2453.78 1856.17,2462.72 C1860.8,2471.66 1866.76,2492.85 1866.76,2501.11 C1866.76,2517.33 1855.5,2519.99 1841.94,2519.99 M1839.28,2441.2 C1793.61,2441.2 1777.39,2464.38 1777.39,2485.89 C1777.39,2507.41 1793.61,2530.58 1839.28,2530.58 C1884.97,2530.58 1900.84,2507.41 1900.84,2485.89 C1900.84,2464.38 1884.97,2441.2 1839.28,2441.2"/>
<path class="Note" d="M3078.18,2478.65 C3068.91,2478.65 3062.61,2475.99 3058.32,2467.73 C3054,2459.44 3048.05,2438.26 3047.72,2429.32 C3047.07,2420.38 3050.36,2415.08 3058.32,2412.44 C3062.29,2411.12 3067.58,2410.46 3072.55,2410.46 C3081.82,2410.46 3087.77,2412.44 3092.41,2421.38 C3097.04,2430.32 3103,2451.51 3103,2459.77 C3103,2475.99 3091.74,2478.65 3078.18,2478.65 M3075.52,2399.87 C3029.85,2399.87 3013.63,2423.04 3013.63,2444.55 C3013.63,2466.07 3029.85,2489.24 3075.52,2489.24 C3121.21,2489.24 3137.08,2466.07 3137.08,2444.55 C3137.08,2423.04 3121.21,2399.87 3075.52,2399.87"/>
<path class="Note" d="M2963.07,2354.63 C2953.81,2354.63 2947.51,2351.98 2943.21,2343.71 C2938.9,2335.43 2932.95,2314.24 2932.62,2305.3 C2931.96,2296.37 2935.26,2291.07 2943.21,2288.43 C2947.18,2287.1 2952.48,2286.44 2957.45,2286.44 C2966.71,2286.44 2972.67,2288.43 2977.31,2297.37 C2981.93,2306.3 2987.9,2327.49 2987.9,2335.76 C2987.9,2351.98 2976.64,2354.63 2963.07,2354.63 M2960.42,2275.85 C2914.75,2275.85 2898.53,2299.02 2898.53,2320.54 C2898.53,2342.05 2914.75,2365.23 2960.42,2365.23 C3006.1,2365.23 3021.98,2342.05 3021.98,2320.54 C3021.98,2299.02 3006.1,2275.85 2960.42,2275.85"/>
<path class="Note" d="M3078.18,2313.29 C3068.91,2313.29 3062.61,2310.64 3058.32,2302.37 C3054,2294.09 3048.05,2272.9 3047.72,2263.96 C3047.07,2255.03 3050.36,2249.73 3058.32,2247.09 C3062.29,2245.76 3067.58,2245.11 3072.55,2245.11 C3081.82,2245.11 3087.77,2247.09 3092.41,2256.03 C3097.04,2264.96 3103,2286.15 3103,2294.42 C3103,2310.64 3091.74,2313.29 3078.18,2313.29 M3075.52,2234.51 C3029.85,2234.51 3013.63,2257.68 3013.63,2279.2 C3013.63,2300.71 3029.85,2323.89 3075.52,2323.89 C3121.21,2323.89 3137.08,2300.71 3137.08,2279.2 C3137.08,2257.68 3121.21,2234.51 3075.52,2234.51"/>
<path class="Note" d="M2963.07,2106.6 C2953.81,2106.6 2947.51,2103.94 2943.21,2095.68 C2938.9,2087.4 2932.95,2066.21 2932.62,2057.27 C2931.96,2048.33 2935.26,2043.04 2943.21,2040.4 C2947.18,2039.07 2952.48,2038.41 2957.45,2038.41 C2966.71,2038.41 2972.67,2040.4 2977.31,2049.33 C2981.93,2058.27 2987.9,2079.46 2987.9,2087.73 C2987.9,2103.94 2976.64,2106.6 2963.07,2106.6 M2960.42,2027.82 C2914.75,2027.82 2898.53,2050.99 2898.53,2072.51 C2898.53,2094.02 2914.75,2117.19 2960.42,2117.19 C3006.1,2117.19 3021.98,2094.02 3021.98,2072.51 C3021.98,2050.99 3006.1,2027.82 2960.42,2027.82"/>
<path class="Note" d="M3078.18,2065.26 C3068.91,2065.26 3062.61,2062.61 3058.32,2054.34 C3054,2046.06 3048.05,2024.87 3047.72,2015.93 C3047.07,2007 3050.36,2001.7 3058.32,1999.06 C3062.29,1997.73 3067.58,1997.07 3072.55,1997.07 C3081.82,1997.07 3087.77,1999.06 3092.41,2008 C3097.04,2016.93 3103,2038.12 3103,2046.39 C3103,2062.61 3091.74,2065.26 3078.18,2065.26 M3075.52,1986.48 C3029.85,1986.48 3013.63,2009.65 3013.63,2031.17 C3013.63,2052.68 3029.85,2075.86 3075.52,2075.86 C3121.21,2075.86 3137.08,2052.68 3137.08,2031.17 C3137.08,2009.65 3121.21,1986.48 3075.52,1986.48"/>
<path class="Note" d="M4526.92,2561.32 C4517.66,2561.32 4511.36,2558.67 4507.06,2550.4 C4502.75,2542.12 4496.8,2520.93 4496.47,2512 C4495.81,2503.06 4499.11,2497.76 4507.06,2495.12 C4511.03,2493.79 4516.33,2493.14 4521.3,2493.14 C4530.56,2493.14 4536.52,2495.12 4541.16,2504.06 C4545.78,2513 4551.75,2534.18 4551.75,2542.45 C4551.75,2558.67 4540.48,2561.32 4526.92,2561.32 M4524.27,2482.54 C4478.59,2482.54 4462.37,2505.72 4462.37,2527.23 C4462.37,2548.75 4478.59,2571.92 4524.27,2571.92 C4569.95,2571.92 4585.83,2548.75 4585.83,2527.23 C4585.83,2505.72 4569.95,2482.54 4524.27,2482.54"/>
<path class="Note" d="M4526.92,2437.31 C4517.66,2437.31 4511.36,2434.65 4507.06,2426.39 C4502.75,2418.11 4496.8,2396.92 4496.47,2387.98 C4495.81,2379.04 4499.11,2373.75 4507.06,2371.11 C4511.03,2369.78 4516.33,2369.12 4521.3,2369.12 C4530.56,2369.12 4536.52,2371.11 4541.16,2380.04 C4545.78,2388.98 4551.75,2410.17 4551.75,2418.43 C4551.75,2434.65 4540.48,2437.31 4526.92,2437.31 M4524.27,2358.53 C4478.59,2358.53 4462.37,2381.7 4462.37,2403.21 C4462.37,2424.73 4478.59,2447.9 4524.27,2447.9 C4569.95,2447.9 4585.83,2424.73 4585.83,2403.21 C4585.83,2381.7 4569.95,2358.53 4524.27,2358.53"/>
<path class="Note" d="M4526.92,2313.29 C4517.66,2313.29 4511.36,2310.64 4507.06,2302.37 C4502.75,2294.09 4496.8,2272.9 4496.47,2263.96 C4495.81,2255.03 4499.11,2249.73 4507.06,2247.09 C4511.03,2245.76 4516.33,2245.11 4521.3,2245.11 C4530.56,2245.11 4536.52,2247.09 4541.16,2256.03 C4545.78,2264.96 4551.75,2286.15 4551.75,2294.42 C4551.75,2310.64 4540.48,2313.29 4526.92,2313.29 M4524.27,2234.51 C4478.59,2234.51 4462.37,2257.68 4462.37,2279.2 C4462.37,2300.71 4478.59,2323.89 4524.27,2323.89 C4569.95,2323.89 4585.83,2300.71 4585.83,2279.2 C4585.83,2257.68 4569.95,2234.51 4524.27,2234.51"/>
<path class="Note" d="M4411.82,2189.28 C4402.55,2189.28 4396.26,2186.62 4391.96,2178.36 C4387.65,2170.07 4381.69,2148.89 4381.36,2139.95 C4380.71,2131.01 4384.01,2125.71 4391.96,2123.07 C4395.93,2121.75 4401.22,2121.09 4406.19,2121.09 C4415.46,2121.09 4421.41,2123.07 4426.05,2132.01 C4430.68,2140.95 4436.65,2162.14 4436.65,2170.4 C4436.65,2186.62 4425.38,2189.28 4411.82,2189.28 M4409.16,2110.5 C4363.49,2110.5 4347.27,2133.67 4347.27,2155.18 C4347.27,2176.7 4363.49,2199.87 4409.16,2199.87 C4454.85,2199.87 4470.72,2176.7 4470.72,2155.18 C4470.72,2133.67 4454.85,2110.5 4409.16,2110.5"/>
<path class="Note" d="M4526.92,2147.94 C4517.66,2147.94 4511.36,2145.28 4507.06,2137.02 C4502.75,2128.74 4496.8,2107.55 4496.47,2098.61 C4495.81,2089.67 4499.11,2084.38 4507.06,2081.74 C4511.03,2080.41 4516.33,2079.75 4521.3,2079.75 C4530.56,2079.75 4536.52,2081.74 4541.16,2090.67 C4545.78,2099.61 4551.75,2120.8 4551.75,2129.06 C4551.75,2145.28 4540.48,2147.94 4526.92,2147.94 M4524.27,2069.16 C4478.59,2069.16 4462.37,2092.33 4462.37,2113.84 C4462.37,2135.36 4478.59,2158.53 4524.27,2158.53 C4569.95,2158.53 4585.83,2135.36 4585.83,2113.84 C4585.83,2092.33 4569.95,2069.16 4524.27,2069.16"/>
<path class="Note" d="M4411.82,2106.6 C4402.55,2106.6 4396.26,2103.94 4391.96,2095.68 C4387.65,2087.4 4381.69,2066.21 4381.36,2057.27 C4380.71,2048.33 4384.01,2043.04 4391.96,2040.4 C4395.93,2039.07 4401.22,2038.41 4406.19,2038.41 C4415.46,2038.41 4421.41,2040.4 4426.05,2049.33 C4430.68,2058.27 4436.65,2079.46 4436.65,2087.73 C4436.65,2103.94 4425.38,2106.6 4411.82,2106.6 M4409.16,2027.82 C4363.49,2027.82 4347.27,2050.99 4347.27,2072.51 C4347.27,2094.02 4363.49,2117.19 4409.16,2117.19 C4454.85,2117.19 4470.72,2094.02 4470.72,2072.51 C4470.72,2050.99 4454.85,2027.82 4409.16,2027.82"/>
<path class="Note" d="M4526.92,2065.26 C4517.66,2065.26 4511.36,2062.61 4507.06,2054.34 C4502.75,2046.06 4496.8,2024.87 4496.47,2015.93 C4495.81,2007 4499.11,2001.7 4507.06,1999.06 C4511.03,1997.73 4516.33,1997.07 4521.3,1997.07 C4530.56,1997.07 4536.52,1999.06 4541.16,2008 C4545.78,2016.93 4551.75,2038.12 4551.75,2046.39 C4551.75,2062.61 4540.48,2065.26 4526.92,2065.26 M4524.27,1986.48 C4478.59,1986.48 4462.37,2009.65 4462.37,2031.17 C4462.37,2052.68 4478.59,2075.86 4524.27,2075.86 C4569.95,2075.86 4585.83,2052.68 4585.83,2031.17 C4585.83,2009.65 4569.95,1986.48 4524.27,1986.48"/>
<path class="Note" d="M4526.92,1858.57 C4517.66,1858.57 4511.36,1855.91 4507.06,1847.65 C4502.75,1839.37 4496.8,1818.18 4496.47,1809.24 C4495.81,1800.3 4499.11,1795.01 4507.06,1792.37 C4511.03,1791.04 4516.33,1790.38 4521.3,1790.38 C4530.56,1790.38 4536.52,1792.37 4541.16,1801.3 C4545.78,1810.24 4551.75,1831.43 4551.75,1839.69 C4551.75,1855.91 4540.48,1858.57 4526.92,1858.57 M4524.27,1779.79 C4478.59,1779.79 4462.37,1802.96 4462.37,1824.47 C4462.37,1845.99 4478.59,1869.16 4524.27,1869.16 C4569.95,1869.16 4585.83,1845.99 4585.83,1824.47 C4585.83,1802.96 4569.95,1779.79 4524.27,1779.79"/>
<path class="Note" d="M5763.16,2106.6 C5753.9,2106.6 5747.6,2103.94 5743.3,2095.68 C5738.99,2087.4 5733.04,2066.21 5732.71,2057.27 C5732.05,2048.33 5735.35,2043.04 5743.3,2040.4 C5747.27,2039.07 5752.57,2038.41 5757.54,2038.41 C5766.8,2038.41 5772.76,2040.4 5777.4,2049.33 C5782.02,2058.27 5787.99,2079.46 5787.99,2087.73 C5787.99,2103.94 5776.72,2106.6 5763.16,2106.6 M5760.51,2027.82 C5714.83,2027.82 5698.62,2050.99 5698.62,2072.51 C5698.62,2094.02 5714.83,2117.19 5760.51,2117.19 C5806.19,2117.19 5822.07,2094.02 5822.07,2072.51 C5822.07,2050.99 5806.19,2027.82 5760.51,2027.82"/>
<path class="Note" d="M5648.06,1982.58 C5638.79,1982.58 5632.5,1979.93 5628.2,1971.66 C5623.89,1963.38 5617.93,1942.19 5617.61,1933.26 C5616.95,1924.32 5620.25,1919.02 5628.2,1916.38 C5632.17,1915.05 5637.47,1914.4 5642.43,1914.4 C5651.7,1914.4 5657.65,1916.38 5662.29,1925.32 C5666.92,1934.26 5672.89,1955.44 5672.89,1963.71 C5672.89,1979.93 5661.62,1982.58 5648.06,1982.58 M5645.4,1903.8 C5599.73,1903.8 5583.51,1926.97 5583.51,1948.49 C5583.51,1970.01 5599.73,1993.18 5645.4,1993.18 C5691.09,1993.18 5706.97,1970.01 5706.97,1948.49 C5706.97,1926.97 5691.09,1903.8 5645.4,1903.8"/>
<path class="Note" d="M5763.16,1941.25 C5753.9,1941.25 5747.6,1938.59 5743.3,1930.32 C5738.99,1922.04 5733.04,1900.86 5732.71,1891.92 C5732.05,1882.98 5735.35,1877.68 5743.3,1875.04 C5747.27,1873.71 5752.57,1873.06 5757.54,1873.06 C5766.8,1873.06 5772.76,1875.04 5777.4,1883.98 C5782.02,1892.92 5787.99,1914.11 5787.99,1922.37 C5787.99,1938.59 5776.72,1941.25 5763.16,1941.25 M5760.51,1862.46 C5714.83,1862.46 5698.62,1885.64 5698.62,1907.15 C5698.62,1928.67 5714.83,1951.84 5760.51,1951.84 C5806.19,1951.84 5822.07,1928.67 5822.07,1907.15 C5822.07,1885.64 5806.19,1862.46 5760.51,1862.46"/>
<path class="Note" d="M5763.16,1817.23 C5753.9,1817.23 5747.6,1814.57 5743.3,1806.31 C5738.99,1798.03 5733.04,1776.84 5732.71,1767.9 C5732.05,1758.96 5735.35,1753.67 5743.3,1751.03 C5747.27,1749.7 5752.57,1749.04 5757.54,1749.04 C5766.8,1749.04 5772.76,1751.03 5777.4,1759.96 C5782.02,1768.9 5787.99,1790.09 5787.99,1798.35 C5787.99,1814.57 5776.72,1817.23 5763.16,1817.23 M5760.51,1738.45 C5714.83,1738.45 5698.62,1761.62 5698.62,1783.14 C5698.62,1804.65 5714.83,1827.82 5760.51,1827.82 C5806.19,1827.82 5822.07,1804.65 5822.07,1783.14 C5822.07,1761.62 5806.19,1738.45 5760.51,1738.45"/>
<path class="Clef" d="M1323.07,2430.39 C1316.45,2431.72 1310.16,2432.38 1303.87,2432.38 C1256.54,2432.38 1216.16,2399.28 1216.16,2349.3 C1216.16,2308.91 1244.63,2272.83 1273.76,2247.67 C1279.38,2242.72 1284.68,2238.08 1289.65,2233.11 C1292.62,2250.99 1294.95,2266.55 1297.26,2280.11 C1267.13,2289.05 1246.62,2320.83 1246.62,2351.94 C1246.62,2375.11 1264.82,2406.89 1291.29,2406.89 C1293.95,2406.89 1296.93,2405.56 1296.93,2402.58 C1296.93,2399.61 1293.62,2397.95 1289.65,2395.3 C1276.73,2387.36 1269.45,2378.75 1269.45,2362.53 C1269.45,2342.35 1284.35,2326.13 1303.87,2321.49 L1323.07,2430.39 M1293.95,2090.13 C1296.93,2076.89 1312.15,2042.13 1329.37,2042.13 C1334.32,2042.13 1342.27,2058.35 1342.27,2081.19 C1342.27,2115.61 1316.79,2141.44 1293.95,2163.94 C1291.96,2150.7 1290.3,2137.8 1290.3,2123.89 C1290.3,2111.64 1291.29,2100.39 1293.95,2090.13 M1370.07,2369.16 C1370.07,2392.66 1360.48,2416.81 1336.98,2426.42 C1330.02,2386.7 1321.09,2334.06 1318.77,2319.5 C1348.55,2319.5 1370.07,2339.7 1370.07,2369.16 M1224.43,2532 C1224.43,2553.85 1241.32,2582.64 1286.01,2582.64 C1301.55,2582.64 1315.13,2578.67 1327.04,2571.39 C1344.91,2558.81 1349.55,2536.97 1349.55,2516.11 C1349.55,2503.2 1347.57,2488.31 1344.26,2469.44 C1343.26,2462.83 1341.27,2452.89 1339.29,2439.99 C1371.73,2429.39 1395.9,2395.64 1395.9,2361.55 C1395.9,2311.56 1360.48,2277.8 1312.15,2277.8 C1308.84,2257.94 1305.52,2238.41 1302.55,2219.88 C1337.63,2183.14 1361.8,2141.77 1361.8,2089.14 C1361.8,2059.02 1352.52,2034.52 1347.24,2022.61 C1339.29,2005.72 1329.7,1994.14 1323.73,1994.14 C1321.41,1994.14 1311.16,1998.11 1300.23,2011.02 C1279.05,2036.17 1273.09,2078.55 1273.09,2106.35 C1273.09,2124.22 1274.74,2140.44 1280.37,2177.52 C1280.04,2177.85 1262.84,2195.38 1255.88,2201.02 C1225.76,2229.14 1184.05,2269.19 1184.05,2335.39 C1184.05,2397.28 1238.01,2445.94 1299.57,2445.94 C1309.16,2445.94 1318.1,2444.95 1325.73,2443.63 C1332.01,2475.41 1335.65,2498.58 1335.65,2516.11 C1335.65,2550.53 1318.1,2568.75 1284.68,2568.75 C1276.73,2568.75 1269.79,2567.1 1269.12,2567.1 C1268.79,2566.75 1268.13,2566.42 1268.13,2566.1 C1268.13,2565.44 1268.79,2565.11 1269.79,2564.77 C1285.34,2562.45 1300.9,2549.22 1300.9,2528.03 C1300.9,2510.16 1287.32,2491.3 1262.51,2491.3 C1239.34,2491.3 1224.43,2510.16 1224.43,2532"/>
<path class="TimeSig" d="M1542.63,2239.37 L1542.63,2263.87 L1515.16,2263.87 C1512.85,2263.87 1510.52,2265.85 1510.52,2268.49 L1510.52,2274.79 C1510.52,2277.43 1512.85,2279.43 1515.16,2279.43 L1615.45,2279.43 C1618.1,2279.43 1620.08,2277.43 1620.08,2274.79 L1620.08,2268.49 C1620.08,2265.85 1618.1,2263.87 1615.45,2263.87 L1585.66,2263.87 L1585.66,2239.37 L1615.45,2239.37 C1618.1,2239.37 1620.08,2237.05 1620.08,2234.41 L1620.08,2228.12 C1620.08,2225.8 1618.1,2223.49 1615.45,2223.49 L1585.66,2223.49 L1585.66,2170.85 C1585.66,2168.87 1584.67,2167.21 1583.35,2166.55 L1579.38,2164.57 C1578.7,2164.24 1578.38,2164.24 1577.72,2164.24 C1576.39,2164.24 1575.06,2164.24 1574.08,2165.23 L1543.95,2192.7 C1542.95,2193.7 1542.63,2195.02 1542.63,2196.34 L1542.63,2223.49 L1504.24,2223.49 C1504.24,2223.49 1541.3,2183.76 1580.36,2131.46 C1581.69,2129.82 1582.02,2128.16 1582.02,2126.84 C1582.02,2125.18 1581.36,2123.85 1581.02,2123.52 L1573.74,2116.24 C1572.75,2115.59 1571.75,2114.91 1570.44,2114.91 C1568.45,2114.91 1523.77,2114.91 1521.11,2114.91 C1518.8,2114.91 1517.14,2116.9 1516.81,2118.88 C1516.81,2118.88 1515.16,2143.38 1506.55,2170.2 C1497.94,2197.01 1488.02,2213.55 1479.41,2225.8 C1479.41,2225.8 1478.42,2227.46 1478.42,2229.45 C1478.42,2230.1 1478.42,2230.77 1478.75,2231.43 C1479.74,2233.74 1482.06,2237.38 1482.06,2237.38 C1482.06,2237.38 1482.72,2239.37 1485.7,2239.37 L1542.63,2239.37 "/>
<path class="TimeSig" d="M1542.63,2403.75 L1542.63,2428.25 L1515.16,2428.25 C1512.85,2428.25 1510.52,2430.23 1510.52,2432.87 L1510.52,2439.17 C1510.52,2441.81 1512.85,2443.81 1515.16,2443.81 L1615.45,2443.81 C1618.1,2443.81 1620.08,2441.81 1620.08,2439.17 L1620.08,2432.87 C1620.08,2430.23 1618.1,2428.25 1615.45,2428.25 L1585.66,2428.25 L1585.66,2403.75 L1615.45,2403.75 C1618.1,2403.75 1620.08,2401.44 1620.08,2398.8 L1620.08,2392.5 C1620.08,2390.19 1618.1,2387.87 1615.45,2387.87 L1585.66,2387.87 L1585.66,2335.23 C1585.66,2333.25 1584.67,2331.59 1583.35,2330.94 L1579.38,2328.95 C1578.7,2328.62 1578.38,2328.62 1577.72,2328.62 C1576.39,2328.62 1575.06,2328.62 1574.08,2329.61 L1543.95,2357.08 C1542.95,2358.08 1542.63,2359.41 1542.63,2360.72 L1542.63,2387.87 L1504.24,2387.87 C1504.24,2387.87 1541.3,2348.14 1580.36,2295.84 C1581.69,2294.2 1582.02,2292.55 1582.02,2291.22 C1582.02,2289.56 1581.36,2288.23 1581.02,2287.91 L1573.74,2280.62 C1572.75,2279.97 1571.75,2279.3 1570.44,2279.3 C1568.45,2279.3 1523.77,2279.3 1521.11,2279.3 C1518.8,2279.3 1517.14,2281.28 1516.81,2283.27 C1516.81,2283.27 1515.16,2307.77 1506.55,2334.58 C1497.94,2361.39 1488.02,2377.94 1479.41,2390.19 C1479.41,2390.19 1478.42,2391.84 1478.42,2393.83 C1478.42,2394.48 1478.42,2395.16 1478.75,2395.81 C1479.74,2398.12 1482.06,2401.77 1482.06,2401.77 C1482.06,2401.77 1482.72,2403.75 1485.7,2403.75 L1542.63,2403.75 "/>
<path class="Dynamic" d="M8343.15,2605.58 C8342.15,2606.24 8340.49,2606.24 8339.49,2606.24 C8338.82,2606.24 8337.49,2606.24 8336.82,2605.91 C8331.83,2603.91 8330.49,2597.91 8330.49,2591.6 C8330.49,2581.27 8334.16,2569.28 8334.49,2568.61 C8336.82,2558.63 8349.47,2534.99 8362.13,2534.99 C8363.13,2534.99 8364.13,2534.99 8364.8,2535.31 C8368.79,2536.31 8369.46,2542.64 8369.46,2545.97 C8369.46,2561.95 8357.8,2598.58 8343.15,2605.58 M8451.04,2605.58 C8450.04,2606.24 8448.38,2606.24 8447.38,2606.24 C8446.71,2606.24 8445.38,2606.24 8444.71,2605.91 C8439.72,2603.91 8438.38,2597.91 8438.38,2591.6 C8438.38,2581.27 8442.05,2569.28 8442.38,2568.61 C8444.71,2558.63 8457.36,2534.99 8470.02,2534.99 C8471.02,2534.99 8472.02,2534.99 8472.69,2535.31 C8476.68,2536.31 8477.35,2542.64 8477.35,2545.97 C8477.35,2561.95 8465.69,2598.58 8451.04,2605.58 M8579.91,2572.94 C8575.58,2585.92 8567.26,2601.58 8558.93,2605.58 C8557.93,2606.24 8555.93,2606.24 8554.93,2606.24 C8554.27,2606.24 8553.27,2606.24 8552.6,2605.91 C8547.61,2603.91 8546.27,2597.91 8546.27,2591.6 C8546.27,2581.27 8549.94,2569.28 8550.27,2568.61 C8552.6,2558.63 8565.26,2534.99 8577.91,2534.99 C8578.91,2534.99 8579.91,2534.99 8580.57,2535.31 C8581.91,2535.64 8583.24,2536.97 8583.91,2538.31 C8584.91,2539.97 8585.24,2542.64 8585.24,2545.64 C8585.24,2554.63 8581.57,2566.95 8579.58,2572.94 L8579.91,2572.94 M8585.24,2523.33 C8574.91,2523.33 8564.58,2531.99 8558.93,2537.64 L8557.93,2538.64 L8557.27,2537.31 C8557.27,2537.31 8550.27,2524.66 8538.61,2522.99 C8536.96,2522.66 8535.29,2522.66 8533.63,2522.66 C8522.3,2522.66 8507.65,2526.99 8499.99,2544.97 C8497.99,2533.99 8489.33,2523.33 8477.35,2523.33 C8467.02,2523.33 8456.71,2531.99 8451.04,2537.64 L8450.04,2538.64 L8449.38,2537.31 C8449.38,2537.31 8442.38,2524.66 8430.72,2522.99 C8429.07,2522.66 8427.4,2522.66 8425.74,2522.66 C8414.41,2522.66 8399.76,2526.99 8392.1,2544.97 C8390.1,2533.99 8381.44,2523.33 8369.46,2523.33 C8359.13,2523.33 8348.82,2531.99 8343.15,2537.64 L8342.15,2538.64 L8341.49,2537.31 C8341.49,2537.31 8334.49,2524.66 8322.83,2522.99 C8321.51,2522.99 8320.51,2522.66 8319.18,2522.66 C8308.19,2522.66 8296.86,2530.31 8287.21,2557.95 L8293.21,2560.95 C8294.54,2556.63 8298.19,2545.97 8302.19,2540.64 C8304.19,2537.64 8307.85,2534.99 8310.85,2534.31 C8311.18,2534.31 8311.85,2534.31 8312.18,2534.31 C8313.18,2534.31 8314.18,2534.64 8314.85,2534.99 C8316.18,2535.99 8316.51,2537.64 8316.51,2539.97 C8316.51,2547.97 8310.52,2562.61 8308.85,2565.95 L8275.88,2657.86 L8255.57,2657.86 L8255.57,2664.52 L8330.16,2664.52 L8330.16,2657.86 L8305.19,2657.86 L8324.51,2604.24 L8325.51,2606.58 C8325.51,2606.58 8328.83,2613.89 8340.16,2616.89 C8342.15,2617.56 8344.49,2617.56 8346.47,2617.56 C8364.8,2617.56 8383.11,2598.91 8390.1,2572.27 C8395.1,2555.63 8399.43,2547.97 8402.76,2542.3 C8405.43,2537.97 8411.76,2533.64 8417.07,2533.64 C8421.74,2533.64 8424.4,2536.31 8424.4,2540.97 C8424.4,2546.63 8420.74,2555.3 8416.74,2565.95 L8383.77,2657.86 L8363.13,2657.86 L8363.13,2664.52 L8438.05,2664.52 L8438.05,2657.86 L8413.08,2657.86 L8432.4,2604.24 L8433.4,2606.58 C8433.4,2606.58 8436.4,2613.89 8447.71,2616.89 C8449.71,2617.56 8452.04,2617.56 8454.04,2617.56 C8472.35,2617.56 8491.01,2598.91 8497.99,2572.27 C8502.99,2555.63 8507.32,2547.97 8510.65,2542.3 C8513.32,2537.97 8519.63,2533.64 8524.96,2533.64 C8529.63,2533.64 8532.29,2536.31 8532.29,2540.97 C8532.29,2546.63 8528.63,2555.3 8524.63,2565.95 L8491.66,2657.86 L8471.02,2657.86 L8471.02,2664.52 L8545.94,2664.52 L8545.94,2657.86 L8520.63,2657.86 L8540.29,2604.24 L8541.29,2606.58 C8541.29,2606.58 8544.27,2613.89 8555.6,2616.89 C8557.6,2617.56 8559.93,2617.56 8561.93,2617.56 C8590.22,2617.56 8608.55,2578.6 8608.55,2553.3 C8608.55,2539.64 8600.55,2523.33 8585.24,2523.33"/>
<path class="Dynamic" d="M5644.27,2715.63 C5643.27,2716.28 5641.62,2716.28 5640.62,2716.28 C5639.95,2716.28 5638.62,2716.28 5637.95,2715.96 C5632.96,2713.96 5631.62,2707.96 5631.62,2701.64 C5631.62,2691.32 5635.29,2679.33 5635.62,2678.66 C5637.95,2668.68 5650.6,2645.03 5663.26,2645.03 C5664.26,2645.03 5665.26,2645.03 5665.93,2645.36 C5669.91,2646.36 5670.59,2652.69 5670.59,2656.02 C5670.59,2672 5658.93,2708.63 5644.27,2715.63 M5752.16,2715.63 C5751.16,2716.28 5749.51,2716.28 5748.51,2716.28 C5747.84,2716.28 5746.51,2716.28 5745.84,2715.96 C5740.85,2713.96 5739.51,2707.96 5739.51,2701.64 C5739.51,2691.32 5743.18,2679.33 5743.51,2678.66 C5745.84,2668.68 5758.49,2645.03 5771.15,2645.03 C5772.15,2645.03 5773.15,2645.03 5773.82,2645.36 C5777.8,2646.36 5778.48,2652.69 5778.48,2656.02 C5778.48,2672 5766.82,2708.63 5752.16,2715.63 M5881.04,2682.99 C5876.71,2695.97 5868.38,2711.63 5860.05,2715.63 C5859.05,2716.28 5857.05,2716.28 5856.05,2716.28 C5855.4,2716.28 5854.4,2716.28 5853.73,2715.96 C5848.74,2713.96 5847.4,2707.96 5847.4,2701.64 C5847.4,2691.32 5851.07,2679.33 5851.4,2678.66 C5853.73,2668.68 5866.38,2645.03 5879.04,2645.03 C5880.04,2645.03 5881.04,2645.03 5881.7,2645.36 C5883.04,2645.69 5884.37,2647.02 5885.04,2648.36 C5886.04,2650.02 5886.37,2652.69 5886.37,2655.69 C5886.37,2664.68 5882.7,2677 5880.71,2682.99 L5881.04,2682.99 M5886.37,2633.38 C5876.04,2633.38 5865.71,2642.03 5860.05,2647.69 L5859.05,2648.69 L5858.4,2647.36 C5858.4,2647.36 5851.4,2634.71 5839.74,2633.03 C5838.09,2632.71 5836.41,2632.71 5834.76,2632.71 C5823.43,2632.71 5808.77,2637.03 5801.12,2655.02 C5799.12,2644.03 5790.46,2633.38 5778.48,2633.38 C5768.15,2633.38 5757.84,2642.03 5752.16,2647.69 L5751.16,2648.69 L5750.51,2647.36 C5750.51,2647.36 5743.51,2634.71 5731.85,2633.03 C5730.2,2632.71 5728.52,2632.71 5726.87,2632.71 C5715.54,2632.71 5700.88,2637.03 5693.23,2655.02 C5691.23,2644.03 5682.57,2633.38 5670.59,2633.38 C5660.26,2633.38 5649.95,2642.03 5644.27,2647.69 L5643.27,2648.69 L5642.62,2647.36 C5642.62,2647.36 5635.62,2634.71 5623.96,2633.03 C5622.63,2633.03 5621.63,2632.71 5620.3,2632.71 C5609.32,2632.71 5597.99,2640.36 5588.34,2668 L5594.34,2671 C5595.66,2666.68 5599.32,2656.02 5603.32,2650.69 C5605.32,2647.69 5608.98,2645.03 5611.98,2644.36 C5612.3,2644.36 5612.98,2644.36 5613.3,2644.36 C5614.3,2644.36 5615.3,2644.69 5615.98,2645.03 C5617.3,2646.03 5617.63,2647.69 5617.63,2650.02 C5617.63,2658.02 5611.65,2672.66 5609.98,2676 L5577.01,2767.91 L5556.7,2767.91 L5556.7,2774.57 L5631.29,2774.57 L5631.29,2767.91 L5606.32,2767.91 L5625.63,2714.28 L5626.63,2716.63 C5626.63,2716.63 5629.96,2723.94 5641.29,2726.94 C5643.27,2727.61 5645.62,2727.61 5647.6,2727.61 C5665.93,2727.61 5684.24,2708.96 5691.23,2682.32 C5696.23,2665.68 5700.55,2658.02 5703.88,2652.35 C5706.55,2648.02 5712.88,2643.69 5718.2,2643.69 C5722.87,2643.69 5725.52,2646.36 5725.52,2651.02 C5725.52,2656.68 5721.87,2665.35 5717.87,2676 L5684.9,2767.91 L5664.26,2767.91 L5664.26,2774.57 L5739.18,2774.57 L5739.18,2767.91 L5714.21,2767.91 L5733.52,2714.28 L5734.52,2716.63 C5734.52,2716.63 5737.52,2723.94 5748.84,2726.94 C5750.84,2727.61 5753.16,2727.61 5755.16,2727.61 C5773.48,2727.61 5792.13,2708.96 5799.12,2682.32 C5804.12,2665.68 5808.45,2658.02 5811.77,2652.35 C5814.45,2648.02 5820.76,2643.69 5826.09,2643.69 C5830.76,2643.69 5833.41,2646.36 5833.41,2651.02 C5833.41,2656.68 5829.76,2665.35 5825.76,2676 L5792.79,2767.91 L5772.15,2767.91 L5772.15,2774.57 L5847.07,2774.57 L5847.07,2767.91 L5821.76,2767.91 L5841.41,2714.28 L5842.41,2716.63 C5842.41,2716.63 5845.4,2723.94 5856.73,2726.94 C5858.73,2727.61 5861.05,2727.61 5863.05,2727.61 C5891.35,2727.61 5909.68,2688.64 5909.68,2663.35 C5909.68,2649.69 5901.68,2633.38 5886.37,2633.38"/>
<path class="Dynamic" d="M7421.14,2700.07 C7419.14,2685.08 7404.82,2678.08 7391.17,2678.08 C7359.86,2678.08 7346.22,2710.05 7337.89,2735.02 L7337.57,2735.69 L7285.61,2735.69 L7285.94,2734.37 C7295.27,2700.07 7297.92,2694.4 7302.92,2690.41 C7305.6,2688.41 7307.92,2687.74 7309.58,2687.74 C7310.25,2687.74 7310.92,2688.08 7311.25,2688.08 C7313.25,2688.41 7314.91,2690.41 7314.91,2692.41 C7314.91,2694.07 7314.25,2695.74 7312.92,2696.4 C7309.58,2699.07 7307.92,2703.4 7307.92,2707.73 C7307.92,2709.4 7308.25,2711.05 7308.58,2712.73 C7309.58,2715.71 7312.25,2719.05 7315.58,2720.38 C7316.91,2721.04 7318.91,2721.38 7320.91,2721.38 C7327.91,2721.38 7335.57,2716.38 7337.57,2709.4 C7338.22,2707.73 7338.22,2705.73 7338.22,2703.73 C7338.22,2686.74 7322.24,2678.43 7307.25,2678.43 C7276.63,2678.43 7262.97,2710.38 7254.64,2735.02 L7254.32,2735.69 L7202.36,2735.69 L7202.69,2734.37 C7212.02,2700.07 7214.69,2694.4 7219.67,2690.41 C7222.35,2688.41 7224.67,2687.74 7226.35,2687.74 C7227,2687.74 7227.67,2688.08 7228,2688.08 C7230,2688.41 7231.66,2690.41 7231.66,2692.41 C7231.66,2694.07 7231,2695.74 7229.67,2696.4 C7226.35,2699.07 7224.67,2703.4 7224.67,2707.73 C7224.67,2709.4 7225,2711.05 7225.35,2712.73 C7226.35,2715.71 7229,2719.05 7232.33,2720.38 C7233.66,2721.04 7235.66,2721.38 7237.66,2721.38 C7244.99,2721.38 7251.97,2716.38 7253.97,2709.4 C7254.64,2707.4 7254.97,2705.05 7254.97,2703.07 C7254.97,2699.07 7253.97,2695.07 7251.64,2691.41 C7246.99,2682.41 7233.66,2678.43 7224,2678.43 C7193.38,2678.43 7179.72,2710.38 7171.39,2735.02 L7171.07,2735.69 L7145.75,2735.69 C7143.75,2735.69 7142.42,2737.02 7142.42,2739.02 L7142.42,2746.35 C7142.42,2748.35 7143.75,2749.68 7145.75,2749.68 L7166.74,2749.68 L7166.39,2751.01 C7163.07,2764.33 7160.41,2775.99 7158.08,2786.98 C7155.41,2799.3 7152.41,2812.29 7148.42,2827.6 L7147.42,2831.6 C7140.42,2858.9 7138.1,2868.55 7130.1,2873.88 C7128.44,2874.88 7126.44,2875.55 7124.44,2875.55 C7122.78,2875.55 7121.44,2875.23 7120.11,2874.23 C7119.11,2873.55 7117.78,2871.9 7118.11,2870.23 C7118.46,2868.9 7119.46,2867.9 7121.11,2867.23 C7127.44,2864.57 7129.44,2858.24 7129.44,2852.91 C7129.44,2848.24 7126.11,2839.58 7114.13,2839.58 C7105.13,2839.58 7096.8,2848.24 7096.8,2857.24 C7096.8,2874.88 7108.8,2884.21 7124.11,2884.21 C7134.77,2884.21 7142.42,2880.55 7150.75,2872.23 C7165.39,2857.57 7181.38,2807.62 7189.71,2779.32 C7192.71,2768.66 7195.71,2758.01 7198.03,2750.35 L7198.03,2749.68 L7249.99,2749.68 L7249.64,2751.01 C7246.32,2764.33 7243.66,2775.99 7241.33,2786.98 C7238.66,2799.3 7235.66,2812.29 7231.66,2827.6 L7230.67,2831.6 C7223.67,2858.9 7221.35,2868.55 7213.35,2873.88 C7211.69,2874.88 7209.69,2875.55 7207.69,2875.55 C7206.03,2875.55 7204.69,2875.23 7203.36,2874.23 C7202.36,2873.55 7201.03,2871.9 7201.36,2870.23 C7201.69,2868.9 7202.69,2867.9 7204.36,2867.23 C7210.69,2864.57 7212.69,2858.24 7212.69,2852.91 C7212.69,2848.24 7209.36,2839.58 7197.36,2839.58 C7188.38,2839.58 7180.05,2847.91 7180.05,2856.91 C7180.05,2874.55 7192.03,2884.21 7207.36,2884.21 C7218.02,2884.21 7225.67,2880.55 7234,2872.23 C7248.64,2857.57 7264.63,2807.62 7272.96,2779.32 C7275.96,2768.66 7278.96,2758.01 7281.28,2750.35 L7281.28,2749.68 L7334.22,2749.68 L7322.91,2794.3 C7320.24,2804.29 7317.91,2814.94 7314.91,2827.27 L7313.91,2831.27 C7309.58,2848.24 7307.25,2858.57 7303.92,2865.23 C7301.92,2869.23 7299.6,2871.9 7296.6,2873.88 C7295.6,2874.88 7292.6,2875.55 7290.94,2875.55 C7286.28,2875.55 7284.61,2872.55 7284.61,2870.23 C7284.61,2867.9 7287.28,2867.23 7287.61,2867.23 C7293.94,2864.57 7295.94,2858.24 7295.94,2852.91 C7295.94,2848.24 7292.6,2839.58 7280.61,2839.58 C7271.63,2839.58 7263.3,2847.91 7263.3,2856.91 C7263.3,2874.23 7274.28,2883.88 7290.61,2883.88 C7301.27,2883.88 7308.92,2880.55 7317.25,2872.23 C7331.89,2857.57 7347.88,2807.62 7356.21,2779.32 C7359.21,2768.66 7362.21,2758.01 7364.53,2750.35 L7364.53,2750.02 L7364.86,2749.68 L7388.85,2749.68 C7390.83,2749.68 7392.17,2748.35 7392.17,2746.35 L7392.17,2739.02 C7392.17,2737.02 7390.83,2735.37 7388.85,2735.37 L7368.86,2735.37 L7369.19,2734.37 C7376.52,2707.73 7379.85,2698.07 7383.17,2693.41 C7383.85,2692.41 7385.5,2690.74 7386.17,2690.07 C7387.5,2689.08 7389.17,2687.74 7392.83,2687.74 C7397.5,2687.74 7398.16,2690.74 7398.16,2692.07 C7398.16,2694.07 7397.83,2695.07 7396.16,2696.4 C7392.83,2699.07 7391.17,2703.07 7391.17,2707.4 C7391.17,2709.05 7391.17,2711.05 7391.83,2712.73 C7392.17,2713.73 7392.5,2714.71 7393.17,2715.38 C7396.5,2719.38 7399.49,2721.04 7404.82,2721.04 C7411.82,2721.04 7418.82,2716.38 7420.8,2709.4 C7421.14,2707.73 7421.47,2705.4 7421.47,2703.73 C7421.47,2702.73 7421.14,2701.4 7421.14,2700.4 L7421.14,2700.07 "/>
<polyline class="HairpinSegment" fill="none" stroke="#000000" stroke-width="9.92" stroke-linejoin="bevel" points="5382.61,2729.79 1785.33,2682.25 5382.61,2634.71" />
</svg>
